<?xml version="1.0" encoding="utf-8"?>
<!-- Generator: Adobe Illustrator 16.0.0, SVG Export Plug-In . SVG Version: 6.00 Build 0)  -->
<!DOCTYPE svg PUBLIC "-//W3C//DTD SVG 1.1//EN" "http://www.w3.org/Graphics/SVG/1.1/DTD/svg11.dtd">
<svg version="1.1" xmlns="http://www.w3.org/2000/svg" xmlns:xlink="http://www.w3.org/1999/xlink" x="0px" y="0px" width="169px"
	 height="208.5px" viewBox="0 0 169 208.5" enable-background="new 0 0 169 208.5" xml:space="preserve">
<g id="Layer_1">
	<ellipse fill="#FF5900" stroke="#000000" stroke-miterlimit="10" cx="84.683" cy="149.077" rx="52.112" ry="53.991"/>
	<ellipse stroke="#000000" stroke-miterlimit="10" cx="108.354" cy="135.631" rx="9.023" ry="14.446"/>
	<ellipse stroke="#000000" stroke-miterlimit="10" cx="62.818" cy="135.631" rx="9.023" ry="14.446"/>
	<ellipse fill="#FFFFFF" cx="58.57" cy="127.472" rx="3.345" ry="3.983"/>
	<ellipse fill="#FFFFFF" cx="104.106" cy="127.472" rx="3.346" ry="3.983"/>
	<g>
		<ellipse fill="#6A2800" cx="84.669" cy="158.615" rx="11.996" ry="4.5"/>
		<path d="M97,158.622c0-0.002-0.132,0.215-0.257,0.604c-0.106,0.415-0.559,0.897-1.128,1.392c-0.586,0.479-1.408,0.975-2.379,1.392
			c-0.971,0.415-2.124,0.796-3.395,1.068c-1.27,0.277-2.683,0.428-4.166,0.458c-0.745,0.011-1.518-0.019-2.278-0.078
			c-0.783-0.066-1.575-0.157-2.371-0.283c-1.592-0.27-3.218-0.643-4.817-1.205c-0.794-0.294-1.587-0.639-2.306-1.141
			c-0.705-0.477-1.433-1.19-1.505-2.213c0.042-0.294,0-0.422,0.112-0.7c0.043-0.122,0.087-0.249,0.138-0.367l0.19-0.301
			c0.26-0.399,0.602-0.714,0.954-0.996c0.722-0.545,1.518-0.927,2.317-1.257c1.617-0.614,3.274-0.965,4.885-1.185
			c1.61-0.213,3.194-0.266,4.668-0.197c1.492,0.063,2.897,0.229,4.166,0.518c1.27,0.282,2.405,0.665,3.375,1.082
			c0.972,0.419,1.759,0.915,2.344,1.396c0.569,0.494,1.094,0.985,1.196,1.392c0.124,0.39,0.256,0.621,0.256,0.616V158.622z
			 M97,158.615c0,0.004-0.188-0.214-0.314-0.578c-0.103-0.378-0.574-0.849-1.158-1.281c-1.186-0.879-3.306-1.502-5.797-1.797
			c-1.249-0.153-2.628-0.273-4.063-0.304c-1.452-0.022-2.976,0.018-4.539,0.183c-1.558,0.162-3.165,0.465-4.708,0.982
			c-0.764,0.269-1.524,0.589-2.184,1.035c-0.326,0.223-0.642,0.47-0.869,0.769l-0.171,0.226l-0.107,0.222
			c-0.098,0.104-0.1,0.423-0.143,0.544c-0.007,0.729,0.531,1.42,1.177,1.911c0.663,0.489,1.424,0.847,2.192,1.152
			c1.562,0.569,3.194,0.849,4.772,0.961c0.792,0.055,1.567,0.08,2.321,0.082c0.777-0.014,1.512-0.026,2.231-0.063
			c1.443-0.063,2.799-0.198,4.046-0.362c1.246-0.171,2.386-0.383,3.363-0.692c0.972-0.313,1.801-0.679,2.385-1.124
			c0.585-0.432,1.153-0.912,1.251-1.28c0.127-0.364,0.314-0.598,0.314-0.591V158.615z"/>
	</g>
	<g>
		<g>
			<path d="M49.534,134.313c0,0-0.121-0.411-0.333-1.128c-0.112-0.357-0.2-0.8-0.265-1.327c-0.076-0.522-0.185-1.119-0.194-1.769
				c-0.015-0.326-0.031-0.666-0.047-1.018c0.009-0.352,0.041-0.714,0.062-1.089c0.016-0.755,0.181-1.531,0.302-2.348
				c0.079-0.404,0.199-0.806,0.3-1.219c0.093-0.417,0.223-0.828,0.381-1.233c0.266-0.833,0.646-1.634,1.033-2.438
				c0.439-0.771,0.853-1.574,1.409-2.261c0.502-0.729,1.101-1.363,1.672-1.988c0.614-0.576,1.196-1.166,1.844-1.599
				c0.318-0.225,0.627-0.444,0.926-0.655c0.305-0.204,0.623-0.363,0.917-0.536c0.583-0.356,1.152-0.612,1.665-0.825
				c0.254-0.111,0.492-0.214,0.712-0.31c0.231-0.066,0.445-0.122,0.649-0.133c0.809-0.092,1.336,0.221,1.336,0.221l0.245,0.991
				c0,0-0.294,0.52-0.915,0.846c-0.312,0.165-0.711,0.289-1.155,0.481c-0.452,0.171-0.956,0.378-1.472,0.677
				c-0.26,0.144-0.544,0.272-0.816,0.443c-0.267,0.178-0.544,0.363-0.828,0.552c-0.294,0.177-0.564,0.402-0.843,0.629
				c-0.278,0.228-0.583,0.438-0.859,0.692c-0.541,0.519-1.119,1.043-1.613,1.666c-0.539,0.584-0.979,1.266-1.449,1.928
				c-0.419,0.695-0.841,1.396-1.157,2.138c-0.183,0.361-0.34,0.729-0.462,1.106c-0.129,0.374-0.28,0.738-0.389,1.108
				c-0.183,0.749-0.414,1.468-0.494,2.177c-0.054,0.352-0.118,0.695-0.159,1.028c-0.026,0.336-0.052,0.66-0.076,0.972
				c-0.076,0.628-0.047,1.196-0.042,1.707c0.004,0.256,0.007,0.496,0.011,0.718c0.023,0.224,0.053,0.427,0.063,0.615
				c0.052,0.747,0.082,1.173,0.082,1.173L49.534,134.313z"/>
		</g>
		<path d="M62.955,113.318c0.069,0.786-1.315,1.334-1.999,1.627c-0.684,0.294-1.08-0.043-1.48-0.245
			c-0.44-0.22-0.734-0.565-0.77-0.977c-0.07-0.785,0.825-1.512,1.998-1.624C61.878,111.987,62.885,112.534,62.955,113.318z"/>
	</g>
	<path d="M65.959,116.454"/>
	<g>
		<g>
			<path d="M121.182,134.305c0,0,0.029-0.427,0.081-1.173c0.011-0.188,0.041-0.391,0.063-0.615c0.003-0.222,0.007-0.462,0.011-0.718
				c0.005-0.511,0.034-1.079-0.042-1.707c-0.024-0.312-0.05-0.636-0.076-0.972c-0.042-0.333-0.105-0.676-0.159-1.028
				c-0.081-0.708-0.313-1.428-0.497-2.176c-0.109-0.37-0.26-0.735-0.39-1.108c-0.122-0.376-0.279-0.745-0.463-1.105
				c-0.316-0.742-0.738-1.441-1.158-2.136c-0.47-0.662-0.91-1.342-1.449-1.927c-0.493-0.623-1.071-1.146-1.612-1.665
				c-0.275-0.253-0.58-0.464-0.858-0.691c-0.279-0.228-0.548-0.453-0.842-0.63c-0.283-0.19-0.56-0.375-0.826-0.554
				c-0.271-0.171-0.556-0.3-0.815-0.445c-0.516-0.299-1.019-0.507-1.47-0.679c-0.444-0.193-0.843-0.316-1.152-0.49
				c-0.615-0.341-0.902-0.901-0.901-0.901l0.244-0.991c0,0,0.52-0.272,1.323-0.166c0.204,0.016,0.417,0.072,0.647,0.141
				c0.22,0.096,0.457,0.2,0.712,0.311c0.512,0.213,1.08,0.471,1.662,0.828c0.294,0.173,0.611,0.333,0.915,0.537
				c0.299,0.212,0.608,0.432,0.926,0.657c0.646,0.434,1.228,1.023,1.842,1.599c0.571,0.625,1.17,1.257,1.672,1.986
				c0.556,0.687,0.97,1.489,1.409,2.259c0.388,0.803,0.769,1.604,1.034,2.436c0.158,0.406,0.288,0.816,0.382,1.232
				c0.102,0.414,0.223,0.815,0.302,1.219c0.121,0.816,0.287,1.593,0.304,2.347c0.021,0.375,0.053,0.738,0.063,1.089
				c-0.017,0.352-0.032,0.692-0.047,1.018c-0.009,0.649-0.118,1.246-0.193,1.769c-0.065,0.527-0.152,0.97-0.266,1.327
				c-0.212,0.718-0.333,1.128-0.333,1.128L121.182,134.305z"/>
		</g>
		<path d="M107.803,113.318c-0.07,0.786,1.315,1.334,1.999,1.627c0.684,0.294,1.081-0.043,1.481-0.245
			c0.439-0.22,0.732-0.565,0.77-0.977c0.068-0.785-0.826-1.512-1.998-1.624C108.881,111.987,107.874,112.534,107.803,113.318z"/>
	</g>
	<path fill="#E92900" stroke="#000000" stroke-miterlimit="10" d="M49.55,172.914c-0.127,12.104,15.061,22.015,33.838,22.212
		c19.708,0.207,35.809-9.354,35.936-21.458l-0.102,0.7L49.5,173.5"/>
	<line fill="none" stroke="#000000" stroke-miterlimit="10" x1="64.625" y1="173.625" x2="65.5" y2="173.75"/>
	<g>
		<g>
			<path fill="none" stroke="#000000" stroke-miterlimit="10" d="M197.333,154.5"/>
		</g>
	</g>
	<path stroke="#000000" stroke-width="0.5" stroke-miterlimit="10" d="M64,173.625l-15-0.5l0.125,1.125
		c1.25,6,4.375,8.93,4.375,9.125l1.25,1.125c-0.25-7.5,4.5-11.25,10.75-10.75"/>
	<path stroke="#000000" stroke-width="0.5" stroke-miterlimit="10" d="M104.646,174.059l14.979-0.184l-0.033,0.436
		c-1.222,7.097-4.96,9.744-4.967,9.939l-1.75,1.375c0.138-5.434-2.985-12.103-9.064-11.461"/>
	<g>
		<path d="M85.057,173.956c0,0,0.006-0.021,0.018-0.062c0.013-0.038,0.001-0.024,0.002,0.017c-0.011-0.052,0.012,0.221,0.167,0.276
			c0.075,0.068,0.263,0.056,0.299,0.027c0.012-0.003,0.024-0.008,0.035-0.015c0.02-0.023-0.185,0.209-0.324,0.435
			c-0.321,0.486-0.735,1.242-1.163,2.182c-0.867,1.877-1.756,4.517-2.36,7.229c-0.615,2.711-0.962,5.479-0.957,7.57
			c-0.009,1.04,0.016,1.929-0.178,2.519c-0.088,0.294-0.201,0.51-0.288,0.647c-0.086,0.139-0.132,0.213-0.132,0.213
			s0.043-0.075,0.125-0.217c0.081-0.141,0.187-0.358,0.264-0.652c0.172-0.588,0.118-1.466,0.093-2.51
			c-0.076-2.096,0.183-4.897,0.709-7.646c0.516-2.752,1.323-5.453,2.145-7.404c0.407-0.979,0.804-1.771,1.136-2.314
			c0.191-0.285,0.26-0.454,0.539-0.68l0.085-0.047c0.054-0.034,0.262-0.042,0.354,0.025c0.175,0.077,0.215,0.389,0.196,0.365
			c-0.004,0.104-0.024,0.171-0.024,0.172c-0.01,0.04-0.016,0.062-0.016,0.062L85.057,173.956z"/>
	</g>
</g>
<g id="Layer_2" display="none">
	<g display="inline">
		<g>
			<path d="M59.808,98.79c0,0-0.01-0.185-0.029-0.542c-0.008-0.362-0.076-0.878-0.194-1.555c-0.249-1.353-0.849-3.295-1.898-5.654
				c-1.031-2.367-2.481-5.154-4.021-8.422c-1.515-3.269-3.159-7.062-3.942-11.499c-0.381-2.213-0.481-4.586-0.173-7.007
				c0.179-1.205,0.425-2.428,0.827-3.624c0.104-0.308,0.184-0.581,0.31-0.922l0.37-0.86c0.248-0.575,0.498-1.155,0.749-1.739
				c0.443-1.186,1.157-2.305,1.806-3.463c0.336-0.577,0.65-1.157,1.013-1.741c0.379-0.544,0.724-1.098,1.143-1.644
				c1.598-2.198,3.458-4.268,5.637-6.081c2.174-1.807,4.683-3.333,7.466-4.304c2.77-0.955,5.869-1.382,8.896-0.626
				c1.489,0.405,2.996,1.108,4.094,2.39c0.542,0.635,0.952,1.421,1.127,2.267c0.181,0.845,0.124,1.726-0.097,2.53
				c-0.451,1.622-1.456,2.932-2.549,4.027c-1.111,1.096-2.357,2.006-3.651,2.807c-2.594,1.601-5.38,2.785-8.197,3.777
				c-2.82,0.991-5.684,1.782-8.548,2.442c-2.882,0.64-5.688,1.235-8.608,1.585c-0.714,0.078-1.402,0.192-2.131,0.238
				c-0.743,0.021-1.483,0.043-2.221,0.064c-0.742,0.054-1.466-0.055-2.193-0.099c-0.727-0.055-1.452-0.095-2.164-0.272
				c-2.859-0.493-5.632-1.629-7.869-3.38c-2.261-1.723-3.98-3.934-5.274-6.217c-2.601-4.596-3.835-9.349-5.021-13.623
				c-1.163-4.286-2.084-8.235-3.458-11.505c-1.295-3.298-3.178-5.826-5.284-7.183c-2.116-1.394-4.216-1.492-5.554-1.628
				c-1.375,0.041-2.109,0.063-2.109,0.063l-0.025-0.198c0,0,0.742-0.075,2.134-0.215c1.373,0.036,3.559,0.021,5.917,1.376
				c0.564,0.359,1.192,0.703,1.719,1.228c0.271,0.25,0.581,0.481,0.838,0.768c0.252,0.292,0.509,0.592,0.772,0.897
				c0.277,0.297,0.493,0.645,0.726,0.991c0.225,0.35,0.484,0.693,0.694,1.068c0.406,0.757,0.865,1.53,1.22,2.374
				c1.54,3.339,2.692,7.287,3.938,11.535c1.27,4.221,2.617,8.855,5.147,13.079c1.269,2.091,2.843,4.059,4.845,5.574
				c1.987,1.534,4.422,2.518,7.02,2.948c0.637,0.166,1.304,0.208,1.971,0.264c0.666,0.046,1.337,0.158,2.006,0.111
				c0.67-0.011,1.342-0.022,2.017-0.033c0.686-0.035,1.407-0.146,2.111-0.215c2.75-0.309,5.619-0.85,8.428-1.432
				c2.821-0.604,5.636-1.333,8.391-2.252c2.751-0.919,5.461-2.025,7.929-3.496c1.229-0.738,2.395-1.572,3.401-2.541
				c0.995-0.963,1.846-2.094,2.199-3.326c0.368-1.224,0.125-2.511-0.695-3.479c-0.809-0.979-2.054-1.612-3.351-1.979
				c-2.645-0.702-5.531-0.373-8.135,0.496c-2.622,0.877-5.031,2.293-7.139,4.002c-2.11,1.708-3.949,3.702-5.515,5.8
				c-0.402,0.508-0.769,1.077-1.15,1.611c-0.338,0.534-0.658,1.105-0.985,1.65c-0.641,1.108-1.349,2.152-1.819,3.349
				c-0.261,0.579-0.521,1.155-0.778,1.726l-0.385,0.854l-0.293,0.837c-0.406,1.14-0.66,2.307-0.853,3.463
				c-0.335,2.321-0.281,4.617,0.055,6.781c0.69,4.339,2.247,8.126,3.702,11.404c1.478,3.28,2.885,6.097,3.881,8.496
				c1.016,2.39,1.591,4.367,1.82,5.746c0.109,0.69,0.169,1.232,0.171,1.587c0.013,0.358,0.02,0.542,0.02,0.542L59.808,98.79z"/>
		</g>
		<g>
			<ellipse cx="7.768" cy="17.362" rx="2.768" ry="2.244"/>
			<path d="M11,17.369c0-0.002-0.191,0.249-0.351,0.666c-0.063,0.216-0.311,0.444-0.491,0.695c-0.198,0.238-0.512,0.479-0.846,0.678
				c-0.333,0.196-0.766,0.357-1.215,0.407c-0.12,0.012-0.222,0.04-0.374,0.04L7.388,19.84c-0.211,0.009-0.483-0.073-0.734-0.122
				c-0.477-0.163-0.979-0.379-1.359-0.796c-0.383-0.421-0.666-0.903-0.69-1.609c0.021-0.245,0.011-0.473,0.144-0.815
				c0.047-0.167,0.119-0.299,0.199-0.42c0.081-0.122,0.146-0.263,0.252-0.36c0.365-0.469,0.882-0.729,1.377-0.93
				c0.517-0.132,1.037-0.22,1.515-0.125c0.195,0.014,0.436,0.085,0.667,0.173c0.236,0.063,0.409,0.203,0.588,0.306
				c0.346,0.231,0.607,0.509,0.794,0.777c0.169,0.28,0.505,0.528,0.553,0.752C10.826,17.102,11,17.367,11,17.362V17.369z M10,17.362
				c0,0,0.232-0.059,0.212-0.17c-0.024-0.109,0.093-0.277-0.02-0.457c-0.162-0.377-0.569-0.8-1.209-0.98
				c-0.162-0.038-0.297-0.09-0.457-0.097c-0.153-0.021-0.298-0.044-0.529-0.039c-0.364-0.014-0.738,0.042-1.106,0.157
				c-0.356,0.127-0.731,0.29-1,0.573c-0.085,0.058-0.122,0.146-0.185,0.219c-0.066,0.077-0.118,0.154-0.141,0.225
				c-0.09,0.104-0.132,0.373-0.169,0.617c0,0.289,0.144,0.748,0.405,1.047C6.054,18.794,6.451,19,6.826,19.166
				c0.336,0.124,0.869,0.213,1.207,0.187c0.397,0.009,0.768-0.091,1.099-0.208c0.667-0.243,1.095-0.748,1.228-1.136
				c0.097-0.187-0.151-0.363-0.135-0.477C10.237,17.417,10,17.356,10,17.356V17.362z"/>
		</g>
	</g>
	<g display="inline">
		<g>
			<path d="M110.758,99.401c0,0-0.025-0.16-0.031-0.47c0.02-0.321,0.046-0.796,0.25-1.377c0.383-1.18,1.545-2.638,3.389-3.939
				c1.828-1.33,4.251-2.6,7.03-4.009c2.758-1.435,5.972-2.935,8.969-5.255c1.466-1.167,2.896-2.597,3.629-4.436
				c0.755-1.827,0.582-3.978-0.271-5.918c-0.89-1.968-1.974-3.936-3.242-5.82c-0.676-0.915-1.309-1.893-2.086-2.716
				c-0.759-0.833-1.653-1.561-2.624-2.153c-1.944-1.172-4.337-1.698-6.584-1.241c-1.107,0.229-2.195,0.695-2.97,1.442
				c-0.796,0.733-1.144,1.744-0.84,2.682c0.296,0.952,1.138,1.793,2.099,2.448c0.97,0.664,2.084,1.176,3.235,1.598
				c2.313,0.841,4.783,1.357,7.271,1.724c1.246,0.181,2.498,0.329,3.756,0.436c1.25,0.125,2.474,0.208,3.657,0.121
				c2.377-0.132,4.635-0.945,5.965-2.683c1.372-1.707,1.876-4.093,2.021-6.432c0.144-2.362-0.057-4.755-0.337-7.098
				c-0.569-4.698-1.535-9.23-2.39-13.542c-0.863-4.313-1.675-8.417-2.08-12.275c-0.405-3.845-0.5-7.476,0.272-10.619
				c0.384-1.563,1.027-2.986,1.917-4.092c0.879-1.116,1.975-1.881,3.026-2.356c2.136-0.935,3.976-0.958,5.171-0.961
				c1.21,0.019,1.849,0.098,1.849,0.098l-0.014,0.2c0,0-0.639-0.038-1.827,0.02c-1.17,0.083-2.969,0.21-4.915,1.186
				c-0.959,0.494-1.914,1.242-2.658,2.292c-0.754,1.042-1.27,2.367-1.583,3.838c-0.619,2.963-0.414,6.474,0.123,10.224
				c0.561,3.759,1.425,7.808,2.379,12.097c0.944,4.292,2.013,8.821,2.7,13.639c0.32,2.411,0.538,4.901,0.402,7.472
				c-0.156,2.533-0.636,5.32-2.431,7.613c-0.894,1.122-2.112,2.003-3.424,2.537c-1.313,0.538-2.693,0.789-4.044,0.859
				c-1.362,0.082-2.696-0.014-3.985-0.168c-1.285-0.146-2.569-0.335-3.85-0.558c-2.559-0.454-5.11-1.057-7.565-2.028
				c-1.223-0.493-2.427-1.074-3.537-1.867c-1.085-0.791-2.169-1.817-2.615-3.309c-0.212-0.734-0.197-1.568,0.066-2.289
				c0.256-0.729,0.713-1.337,1.239-1.815c1.06-0.966,2.371-1.466,3.671-1.709c2.626-0.471,5.301,0.206,7.423,1.549
				c1.061,0.68,2.01,1.492,2.818,2.418c0.817,0.917,1.445,1.915,2.128,2.864c1.276,1.971,2.347,3.988,3.23,6.042
				c0.88,2.084,1.045,4.53,0.162,6.543c-0.855,2.022-2.405,3.488-3.936,4.667c-3.132,2.333-6.38,3.768-9.165,5.156
				c-2.804,1.358-5.233,2.577-7.055,3.853c-1.837,1.25-2.938,2.638-3.32,3.752c-0.205,0.55-0.229,1.002-0.229,1.297
				c0,0.309,0,0.469,0,0.469L110.758,99.401z"/>
		</g>
		<g>
			<path d="M150.35,12.914c0.08,1.223,1.369,2.136,2.876,2.038c1.509-0.095,2.672-1.167,2.59-2.39
				c-0.078-1.227-1.367-2.136-2.876-2.042C151.433,10.619,150.273,11.689,150.35,12.914z"/>
			<path d="M150,12.905c0,0,0.21,0.06,0.229,0.172c0.022,0.111,0.13,0.286,0.237,0.463c0.157,0.375,0.662,0.844,1.336,1.041
				c0.334,0.094,0.73,0.169,1.121,0.134c0.336,0.003,0.869-0.118,1.192-0.261c0.359-0.187,0.743-0.416,0.971-0.762
				c0.238-0.312,0.353-0.772,0.332-1.058c-0.053-0.239-0.11-0.501-0.205-0.597c-0.06-0.133-0.22-0.296-0.352-0.416
				c-0.282-0.262-0.666-0.397-1.024-0.5c-0.369-0.09-0.751-0.123-1.106-0.085c-0.229,0.01-0.384,0.043-0.533,0.073
				c-0.156,0.016-0.317,0.079-0.475,0.126c-0.62,0.218-1.056,0.664-1.192,1.046c-0.101,0.185-0.294,0.351-0.312,0.459
				c-0.014,0.111-0.22,0.17-0.22,0.17V12.905z M150,12.917c0,0.003,0.102-0.254,0.203-0.69c0.033-0.224,0.219-0.478,0.368-0.766
				c0.167-0.277,0.445-0.568,0.772-0.82c0.17-0.113,0.35-0.263,0.579-0.341c0.224-0.102,0.466-0.188,0.657-0.215
				c0.471-0.125,0.991-0.069,1.512,0.028c0.503,0.167,1.033,0.391,1.424,0.832c0.111,0.09,0.186,0.225,0.273,0.341
				c0.087,0.114,0.167,0.24,0.224,0.403c0.154,0.331,0.16,0.556,0.195,0.797c0.022,0.699-0.227,1.195-0.577,1.636
				c-0.351,0.437-0.831,0.682-1.291,0.873c-0.246,0.063-0.507,0.162-0.716,0.166l-0.324,0.035c-0.149,0.01-0.239-0.011-0.358-0.016
				c-0.447-0.02-0.859-0.154-1.201-0.326c-0.343-0.176-0.617-0.397-0.827-0.62c-0.194-0.236-0.502-0.452-0.578-0.661
				C150.151,13.17,150,12.92,150,12.923V12.917z"/>
		</g>
	</g>
</g>
</svg>
